<svg xmlns="http://www.w3.org/2000/svg" version="1.1" xmlns:xlink="http://www.w3.org/1999/xlink" xmlns:svgjs="http://svgjs.dev/svgjs" width="2000" height="1247" viewBox="0 0 2000 1247"><g transform="matrix(1,0,0,1,-1.2121212121212466,0.504858299595071)"><svg viewBox="0 0 396 247" data-background-color="#4f0087" preserveAspectRatio="xMidYMid meet" height="1247" width="2000" xmlns="http://www.w3.org/2000/svg" xmlns:xlink="http://www.w3.org/1999/xlink"><g id="tight-bounds" transform="matrix(1,0,0,1,0.2400000000000091,-0.09999999999999432)"><svg viewBox="0 0 395.52 247.2" height="247.2" width="395.52"><g><svg></svg></g><g><svg viewBox="0 0 395.52 247.2" height="247.2" width="395.52"><mask id="8dd8c3d6-aab5-45ac-b0e6-2b50f823c9e8"><rect width="395.52" height="247.2" fill="white"></rect><g transform="matrix(1,0,0,1,36.070495141138366,37.08)" id="clone"><svg viewBox="0 0 323.37900971772325 173.04" height="173.04" width="323.37900971772325"><g><svg viewBox="0 0 323.37900971772325 173.04" height="173.04" width="323.37900971772325"><g><svg viewBox="0 0 323.37900971772325 173.04" height="173.04" width="323.37900971772325"><g><svg viewBox="0 0 323.37900971772325 173.04" height="173.04" width="323.37900971772325"><g id="SvgjsG1502"><svg viewBox="0 0 323.37900971772325 173.04" height="173.04" width="323.37900971772325" id="SvgjsSvg1501"><g><svg viewBox="0 0 323.37900971772325 173.04" height="173.04" width="323.37900971772325"><g transform="matrix(1,0,0,1,0,0)"><svg width="323.37900971772325" viewBox="-1 -38.74 79.87 43.2" height="173.04" data-palette-color="#dbee49"><path d="M10.21-1.81L10.21-1.81Q10.21-1.56 10.21-1.17 10.21-0.78 10.16-0.39 10.11 0 10.01 0.37 9.91 0.73 9.77 0.88L9.77 0.88Q9.57 1.03 8.98 1.15 8.4 1.27 7.71 1.34 7.03 1.42 6.42 1.44 5.81 1.46 5.52 1.46L5.52 1.46Q5.22 1.46 4.81 1.44 4.39 1.42 3.96 1.37 3.52 1.32 3.15 1.2 2.78 1.07 2.64 0.88L2.64 0.88Q2.44 0.68 2.32 0.17 2.2-0.34 2.12-0.93 2.05-1.51 2.03-2.05 2-2.59 2-2.88L2-2.88Q2-3.47 2.1-4.39 2.2-5.32 2.64-5.71L2.64-5.71Q2.78-5.86 3.34-5.93 3.91-6.01 4.57-6.08 5.22-6.15 5.86-6.18 6.49-6.2 6.74-6.2L6.74-6.2Q7.28-6.2 8.28-6.13 9.28-6.05 9.67-5.71L9.67-5.71Q9.81-5.47 9.94-4.96 10.06-4.44 10.11-3.83 10.16-3.22 10.18-2.66 10.21-2.1 10.21-1.81ZM43.36-25.73L43.36-25.73Q39.11-25.49 34.98-25.34 30.86-25.2 26.66-24.8L26.66-24.8 27.05-20.61 35.15-20.07 36.52-15.19Q34.32-14.7 32.1-14.43 29.88-14.16 27.68-13.72L27.68-13.72Q28.17-10.06 28.37-6.42 28.56-2.78 28.56 0.88L28.56 0.88 15.72 1.32Q15.96-4.39 16.01-10.03 16.06-15.67 16.06-21.39L16.06-21.39 16.06-25.73 16.06-35.55Q18.89-35.6 21.65-35.67 24.41-35.74 27.24-35.74L27.24-35.74Q31.05-35.74 34.86-35.57 38.67-35.4 42.53-35.21L42.53-35.21Q42.82-32.86 43.09-30.49 43.36-28.13 43.36-25.73ZM75.87-20.61L75.87-20.61 75.87-19.48 66.45-19.04Q66.6-19.68 66.6-20.51L66.6-20.51Q66.6-21.73 66.25-22.09 65.91-22.46 64.74-22.46L64.74-22.46Q63.08-22.46 61.08-21.88 59.08-21.29 57.56-20.75L57.56-20.75Q57.32-18.6 57.17-16.46 57.03-14.31 57.03-12.16L57.03-12.16Q57.03-9.77 57.05-7.4 57.08-5.03 57.12-2.64L57.12-2.64 48.73-2.1Q48.48-5.22 48.24-8.33 47.99-11.43 47.8-14.55L47.8-14.55Q47.55-18.7 47.16-22.83 46.77-26.95 46.38-31.15L46.38-31.15Q49.16-30.96 51.92-30.59 54.68-30.22 57.47-29.69L57.47-29.69 57.22-25.59Q58.69-26.76 60.03-27.61 61.37-28.47 62.76-29.05 64.16-29.64 65.72-29.91 67.28-30.18 69.18-30.18L69.18-30.18Q70.45-30.18 71.82-29.91 73.19-29.64 74.16-28.66L74.16-28.66Q74.65-28.13 75-27.05 75.34-25.98 75.53-24.78 75.73-23.58 75.8-22.44 75.87-21.29 75.87-20.61Z" opacity="1" transform="matrix(1,0,0,1,0,0)" fill="black" class="wordmark-text-0" id="SvgjsPath1500" stroke-width="5" stroke="black" stroke-linejoin="round"></path></svg></g></svg></g></svg></g></svg></g><g></g></svg></g></svg></g></svg></g></mask><g mask="url(#8dd8c3d6-aab5-45ac-b0e6-2b50f823c9e8)"><g><path d="M330.131 141.658v0c0 5.374 0 12.254 0 20.637 0 8.384-0.537 16.768-1.613 25.153-1.075 8.384-2.687 16.553-4.837 24.507-2.15 7.739-4.729 13.221-7.739 16.445v0c-4.3 3.225-12.791 6.127-25.474 8.707-12.469 2.58-26.119 4.622-40.953 6.126-14.618 1.72-28.484 2.795-41.597 3.225-13.113 0.43-22.787 0.645-29.022 0.645v0c-6.449 0-14.081-0.215-22.895-0.645-9.029-0.43-18.165-1.182-27.409-2.257-9.459-1.075-18.165-2.902-26.12-5.482-7.954-2.795-13.436-6.234-16.445-10.319v0c-4.3-4.3-7.739-11.931-10.319-22.895-2.58-10.964-4.729-22.787-6.449-35.47-1.505-12.469-2.472-24.507-2.902-36.116-0.645-11.609-0.967-20.53-0.968-26.765v0c0-12.684 1.075-28.914 3.225-48.691 2.15-19.993 7.954-34.181 17.413-42.565v0c3.01-3.225 10.534-5.589 22.572-7.095 12.254-1.72 25.475-3.332 39.663-4.836 13.973-1.505 27.839-2.58 41.598-3.225 13.543-0.43 23.002-0.645 28.376-0.645v0c11.609 0 28.162 0.752 49.66 2.257 21.497 1.72 36.438 6.234 44.822 13.544v0c3.01 5.159 5.912 13.221 8.706 24.184 2.58 11.179 4.407 23.325 5.482 36.439 1.075 13.113 1.827 25.689 2.257 37.728 0.645 12.039 0.967 21.175 0.968 27.409z" fill="#dbee49" fill-rule="nonzero" stroke="none" stroke-width="1" stroke-linecap="butt" stroke-linejoin="miter" stroke-miterlimit="10" stroke-dasharray="" stroke-dashoffset="0" font-family="none" font-weight="none" font-size="none" text-anchor="none" style="mix-blend-mode: normal" data-fill-palette-color="tertiary"></path></g></g><g transform="matrix(1,0,0,1,36.070495141138366,37.08)"><svg viewBox="0 0 323.37900971772325 173.04" height="173.04" width="323.37900971772325"><g><svg viewBox="0 0 323.37900971772325 173.04" height="173.04" width="323.37900971772325"><g><svg viewBox="0 0 323.37900971772325 173.04" height="173.04" width="323.37900971772325"><g><svg viewBox="0 0 323.37900971772325 173.04" height="173.04" width="323.37900971772325"><g id="textblocktransform"><svg viewBox="0 0 323.37900971772325 173.04" height="173.04" width="323.37900971772325" id="textblock"><g><svg viewBox="0 0 323.37900971772325 173.04" height="173.04" width="323.37900971772325"><g transform="matrix(1,0,0,1,0,0)"><svg width="323.37900971772325" viewBox="-1 -38.74 79.87 43.2" height="173.04" data-palette-color="#dbee49"><path d="M10.21-1.81L10.21-1.81Q10.21-1.56 10.21-1.17 10.21-0.78 10.16-0.39 10.11 0 10.01 0.37 9.91 0.73 9.77 0.88L9.77 0.88Q9.57 1.03 8.98 1.15 8.4 1.27 7.71 1.34 7.03 1.42 6.42 1.44 5.81 1.46 5.52 1.46L5.52 1.46Q5.22 1.46 4.81 1.44 4.39 1.42 3.96 1.37 3.52 1.32 3.15 1.2 2.78 1.07 2.64 0.88L2.64 0.88Q2.44 0.68 2.32 0.17 2.2-0.34 2.12-0.93 2.05-1.51 2.03-2.05 2-2.59 2-2.88L2-2.88Q2-3.47 2.1-4.39 2.2-5.32 2.64-5.71L2.64-5.71Q2.78-5.86 3.34-5.93 3.91-6.01 4.57-6.08 5.22-6.15 5.86-6.18 6.49-6.2 6.74-6.2L6.74-6.2Q7.28-6.2 8.28-6.13 9.28-6.05 9.67-5.71L9.67-5.71Q9.81-5.47 9.94-4.96 10.06-4.44 10.11-3.83 10.16-3.22 10.18-2.66 10.21-2.1 10.21-1.81ZM43.36-25.73L43.36-25.73Q39.11-25.49 34.98-25.34 30.86-25.2 26.66-24.8L26.66-24.8 27.05-20.61 35.15-20.07 36.52-15.19Q34.32-14.7 32.1-14.43 29.88-14.16 27.68-13.72L27.68-13.72Q28.17-10.06 28.37-6.42 28.56-2.78 28.56 0.88L28.56 0.88 15.72 1.32Q15.96-4.39 16.01-10.03 16.06-15.67 16.06-21.39L16.06-21.39 16.06-25.73 16.06-35.55Q18.89-35.6 21.65-35.67 24.41-35.74 27.24-35.74L27.24-35.74Q31.05-35.74 34.86-35.57 38.67-35.4 42.53-35.21L42.53-35.21Q42.82-32.86 43.09-30.49 43.36-28.13 43.36-25.73ZM75.87-20.61L75.87-20.61 75.87-19.48 66.45-19.04Q66.6-19.68 66.6-20.51L66.6-20.51Q66.6-21.73 66.25-22.09 65.91-22.46 64.74-22.46L64.74-22.46Q63.08-22.46 61.08-21.88 59.08-21.29 57.56-20.75L57.56-20.75Q57.32-18.6 57.17-16.46 57.03-14.31 57.03-12.16L57.03-12.16Q57.03-9.77 57.05-7.4 57.08-5.03 57.12-2.64L57.12-2.64 48.73-2.1Q48.48-5.22 48.24-8.33 47.99-11.43 47.8-14.55L47.8-14.55Q47.55-18.7 47.16-22.83 46.77-26.95 46.38-31.15L46.38-31.15Q49.16-30.96 51.92-30.59 54.68-30.22 57.47-29.69L57.47-29.69 57.22-25.59Q58.69-26.76 60.03-27.61 61.37-28.47 62.76-29.05 64.16-29.64 65.72-29.91 67.28-30.18 69.18-30.18L69.18-30.18Q70.45-30.18 71.82-29.91 73.19-29.64 74.16-28.66L74.16-28.66Q74.65-28.13 75-27.05 75.34-25.98 75.53-24.78 75.73-23.58 75.8-22.44 75.87-21.29 75.87-20.61Z" opacity="1" transform="matrix(1,0,0,1,0,0)" fill="#dbee49" class="wordmark-text-0" data-fill-palette-color="primary" id="text-0"></path></svg></g></svg></g></svg></g></svg></g><g></g></svg></g></svg></g></svg></g></svg></g><defs></defs></svg><rect width="395.52" height="247.2" fill="none" stroke="none" visibility="hidden"></rect></g></svg></g></svg>